HIERARCHY
ROOT Hips
{
	OFFSET -0.131879162192 -21.9469028045 2.70841930899
	CHANNELS 6 Xposition Yposition Zposition Zrotation Yrotation Xrotation
	JOINT LeftHip
	{
		OFFSET 6.85355635221 -9.0130395607 -0.753961147773
		CHANNELS 3 Zrotation Yrotation Xrotation
		JOINT LeftKnee
		{
			OFFSET 3.15889238677 -36.2917314635 -0.573596775041
			CHANNELS 3 Zrotation Yrotation Xrotation
			JOINT LeftFoot
			{
				OFFSET -1.24058769159 -38.2657043322 -4.2055947007
				CHANNELS 3 Zrotation Yrotation Xrotation
				End LeftToe
				{
                                  OFFSET 2.43909109126 -5.42784805121 11.4732342346
				}
			}
		}
	}
	JOINT RightHip
	{
		OFFSET -6.63343835974 -8.95769947839 -0.436864613367
		CHANNELS 3 Zrotation Yrotation Xrotation
		JOINT RightKnee
		{
			OFFSET -3.64534648899 -36.9807102363 -0.880137782384
			CHANNELS 3 Zrotation Yrotation Xrotation
			JOINT RightFoot
			{
				OFFSET 1.48267018555 -38.3423287233 -4.03225626541
				CHANNELS 3 Zrotation Yrotation Xrotation
				End RightToe
				{
                                        OFFSET -2.19553313664 -4.64678256852 11.8403741145
				}
			}
		}
	}
	JOINT Waist
	{
		OFFSET -0.246479881229 10.5329949331 -2.31197694915
		CHANNELS 3 Zrotation Yrotation Xrotation
		JOINT Spine
		{
			OFFSET 0.471216834396 13.164509377 0.070981423491
			CHANNELS 3 Zrotation Yrotation Xrotation
                        JOINT Chest
                        {
                            OFFSET 0.164698149605 5.122848834 2.62669439803
                            CHANNELS 3 Zrotation Yrotation Xrotation
                            JOINT Neck
                            {
                                OFFSET -0.256072381976 21.1914227623 -4.88680588014
                                CHANNELS 3 Zrotation Yrotation Xrotation
                                End Head
                                {
                                        OFFSET -0.132729036538 26.4516789339 2.16576710312
                                }
                            }
                            JOINT LeftInnerShoulder
                            {
                                OFFSET 7.55385011711 11.9764274099 -3.7274102243
                                CHANNELS 3 Zrotation Yrotation Xrotation
                                JOINT LeftShoulder
                                {
                                        OFFSET 8.60612620371 2.89516919918 -0.762643959854
                                        CHANNELS 3 Zrotation Yrotation Xrotation
                                        JOINT LeftElbow
                                        {
                                                OFFSET 24.9375259027 -1.00229121107 -2.55451757982
                                                CHANNELS 3 Zrotation Yrotation Xrotation
                                                End LeftWrist
                                                {
                                                        OFFSET 23.5099700491 0.78928696605 -0.126162993967
                                                }
                                        }
                                }
                            }
                            JOINT RightInnerShoulder
                            {
                                OFFSET -7.81074292933 11.7467323822 -4.15770897763
                                CHANNELS 3 Zrotation Yrotation Xrotation
                                JOINT RightShoulder
                                {
                                        OFFSET -9.0271368368 3.08630859858 -0.906436382806
                                        CHANNELS 3 Zrotation Yrotation Xrotation
                                        JOINT RightElbow
                                        {
                                                OFFSET -24.3126237748 -1.1810383789 -1.88336090891
                                                CHANNELS 3 Zrotation Yrotation Xrotation
                                                End RightWrist
                                                {
                                                        OFFSET -24.2647917079 0.809160162446 -0.508600207906
                                                }
                                        }
                                }
                            }
                        }
                }
            }
}
MOTION
Frames: 24
Frame Time: 0.0333333333333
0.00000 0.00000 0.00000 32.31850 59.23212 29.14075 4.51720 -8.85563 5.02426 4.02897 -20.74863 19.51066 -4.04413 13.61769 -4.65344 8.88515 -4.92468 2.82718 2.99514 -0.21067 15.79493 11.06890 -19.49060 -11.66684 -4.97158 2.89036 0.26518 -4.80663 -0.58795 3.34336 -0.59015 1.54312 6.69266 -7.76422 15.35180 -9.99313 -6.70804 -5.09192 -1.71675 -58.37394 -15.28409 18.14449 -4.60094 -49.19765 15.33771 7.63516 11.28136 -1.33689 63.79528 13.27921 25.05926 0.75764 28.88088 13.80526
0.57569 -2.71850 0.01616 35.93915 61.52409 32.19092 6.02140 -8.89621 3.62312 3.97336 -20.62740 19.56576 -4.52910 13.29829 -4.75843 9.49318 -4.60804 3.40638 3.04261 1.53490 14.26713 10.35579 -17.91746 -12.16967 -5.34462 2.92643 0.35726 -4.12485 -1.02474 4.12892 -0.56661 1.66575 6.72281 -8.04429 14.83893 -8.63496 -4.42626 -5.94686 -2.00036 -60.44620 -17.50691 17.85997 -3.09330 -48.57959 13.21089 6.67787 10.90550 -0.66253 65.18465 13.58888 24.26063 -0.72524 30.42084 15.13682
0.43449 -5.23241 0.03291 32.39712 60.65769 29.95319 5.81973 -10.61883 2.35808 3.98130 -20.32996 23.03008 -4.11607 14.09274 -2.74555 11.49156 -4.65926 4.46088 3.38043 1.22451 12.05244 9.23627 -16.93282 -10.00298 -5.60063 3.20785 -0.38981 -4.57248 -0.84279 3.53443 -0.33774 1.74909 6.43841 -8.13474 14.44134 -9.58926 -5.66393 -5.64642 -2.64156 -61.57916 -18.13427 19.46977 -0.66253 -51.16381 6.53019 6.10033 10.67924 -0.81639 65.48508 13.26087 25.70527 1.67829 28.94468 15.64423
-1.96607 -4.79382 0.06777 36.47503 62.32039 33.68582 5.53922 -11.86109 1.39331 6.32095 -22.15142 22.04237 -3.73383 14.84571 -2.03807 14.00935 -3.05523 3.20974 2.10468 0.24172 12.32397 8.91109 -17.94704 -7.60208 -7.20966 3.18926 0.38147 -4.37702 -2.04886 3.37250 0.13507 1.18173 7.14396 -8.09949 12.70342 -10.47052 -3.73221 -4.57025 -2.63865 -63.69069 -18.99122 21.20362 1.59268 -51.46889 5.09351 5.01673 10.23239 -1.72306 69.30397 14.84224 26.89327 -2.58568 28.16280 11.74613
-3.45245 -5.77170 0.07472 35.28899 63.44018 33.13385 6.23972 -12.40384 0.05556 6.75978 -22.87511 22.28838 -3.75027 14.45651 -0.91146 15.26305 -4.18298 3.17584 2.59111 -2.35856 9.83298 8.22013 -19.23171 -7.23282 -7.92124 3.70411 0.97575 -4.14618 -2.26592 3.44867 0.31019 1.04413 7.12989 -7.45845 10.77823 -10.04721 -4.25344 -3.76018 -3.02731 -62.51523 -20.17848 21.65076 2.94982 -54.18480 2.68390 5.88846 10.03344 -1.87616 68.63077 15.25439 27.02249 -3.15294 29.86013 8.93889
-5.72286 -4.42467 0.08942 36.57322 64.36459 34.86573 5.35755 -13.74315 -1.76759 5.51768 -24.67652 25.80838 -2.65056 13.20486 -2.75946 14.73498 -4.80865 2.71018 2.27050 -3.24563 10.35577 8.39111 -20.09555 -8.02738 -8.00151 4.50858 2.42181 -3.97882 -1.81170 3.42416 0.19851 1.47142 7.57518 -6.92675 8.37820 -9.54706 -2.98443 -3.11196 -3.27118 -64.45965 -21.39530 23.13328 0.63033 -56.04031 4.15112 5.27215 9.69664 -2.28416 70.58801 15.11322 27.30928 -4.82012 32.90722 6.17337
-6.94676 -2.85333 0.09218 29.51129 62.22275 28.51288 3.86073 -14.41221 -2.07910 5.45252 -25.16750 29.12997 -1.40649 13.88859 -4.42051 15.97440 -4.84665 2.87426 1.44539 -3.61382 10.44422 7.77873 -20.52477 -8.61859 -7.87930 4.79067 2.67171 -4.15925 -1.53076 2.65408 0.17735 1.69500 7.90647 -6.08874 5.83276 -8.52203 -2.26277 -2.17334 -3.04937 -65.97751 -19.89808 23.90205 -1.98696 -57.35395 10.33779 3.76522 10.37327 -3.04897 71.35729 15.72953 27.93955 -3.64717 32.81738 9.47247
-7.53739 -3.33910 0.14969 27.51542 61.24891 28.25060 3.64254 -14.85146 -4.38732 4.41764 -24.42947 33.00022 -1.49343 13.36348 -3.46619 15.88787 -3.79046 0.50270 1.99849 -3.14241 12.83648 8.46701 -20.25839 -8.81929 -7.33890 4.96314 4.30534 -4.03560 -1.26983 3.23370 0.26822 2.05930 7.80780 -6.14889 9.00046 -9.94470 -3.30419 -3.22576 -3.32167 -66.49443 -18.92370 24.63262 -1.04177 -59.59581 8.82893 4.37625 11.18301 -2.09972 70.43653 16.78625 27.70076 -4.88978 35.56803 7.24512
-9.02883 -2.30293 0.14771 27.53397 63.14160 28.12632 5.36810 -15.05221 -5.22949 5.26196 -24.38258 29.79994 -2.35709 13.21036 -3.76990 16.38735 -2.42243 -2.14494 1.95835 -2.39016 15.01276 8.21030 -20.09225 -9.93461 -7.81115 4.57374 5.71889 -4.63988 -1.01891 3.92564 0.12124 1.86143 7.57661 -6.08432 11.31922 -11.56511 -5.25896 -6.24120 -2.62245 -66.73063 -20.26384 24.73119 -1.73726 -58.68274 7.00385 4.68367 12.43412 -1.70680 69.18840 16.35201 26.98793 -5.23174 36.44691 6.60461
-13.45043 -3.81331 0.18541 29.19279 65.35413 32.33745 7.71681 -15.03773 -8.12713 7.33877 -25.76876 26.82337 -3.25788 12.91250 1.24737 16.32632 -1.89375 -6.46922 1.89889 -5.00149 14.67724 8.72643 -22.50966 -5.65919 -8.74276 4.48356 7.52283 -4.59373 -1.99047 3.44732 0.65920 0.82406 7.55859 -6.60082 13.77728 -13.35944 -5.40542 -5.30673 -2.93657 -66.13129 -20.33032 27.63511 -8.00093 -60.28756 15.68519 4.49482 9.99011 -1.89121 69.09868 15.25647 27.98496 -6.11632 37.82639 5.58294
-15.20860 -2.45498 0.23710 26.90720 65.75494 32.71153 10.18198 -14.09087 -10.95125 8.23285 -24.22621 24.60471 -4.91103 13.63148 -0.61403 17.11386 -0.61214 -9.98333 2.38740 -6.59700 14.88035 10.55056 -23.05721 -9.40643 -9.65102 4.43575 9.29133 -4.17350 -2.95011 4.05376 1.36143 0.38802 7.75643 -6.16519 14.29606 -14.63427 -4.89554 -7.69785 -2.21647 -67.82777 -18.74482 29.18540 -10.69439 -61.20725 20.11935 3.91462 10.82591 -0.38632 69.01606 14.37050 25.65752 -6.54337 39.37420 6.34657
-17.50312 -0.62004 0.31919 31.87597 67.25238 39.87913 10.84625 -13.30630 -13.37687 10.05851 -24.07422 21.85578 -4.32873 14.53215 2.53639 15.54413 0.14193 -15.55740 0.69290 -8.47851 18.00994 11.27079 -23.74494 -4.17153 -9.99964 5.08649 12.15879 -4.31761 -2.65850 5.04810 1.48482 0.14198 8.32777 -6.85441 9.51787 -13.05184 -3.42167 -5.47495 -1.34930 -68.72062 -16.38354 29.50513 -13.03947 -60.04626 27.60608 1.91356 8.86661 -0.06682 72.82627 10.52306 24.96907 -10.20495 40.08361 6.97863
-21.18918 -4.87473 0.37103 32.97393 66.46497 44.05866 12.25008 -13.09981 -19.97591 7.84555 -22.65870 24.87002 -4.35655 14.17626 2.95590 14.08701 0.76891 -21.71832 0.80648 -8.53554 22.30643 12.95489 -23.10504 -4.34792 -9.48772 5.63976 15.97067 -4.22907 -1.07157 3.76798 1.53175 0.68951 9.05791 -8.85899 13.13271 -14.64184 -2.64957 -0.03012 -1.06209 -67.57406 -12.93647 26.60218 -16.43957 -57.23251 31.69646 2.29860 3.28724 1.49440 74.62154 6.81846 23.82979 -8.54958 41.74167 10.18372
-23.95436 -5.62994 0.47212 39.80176 69.11357 53.72063 14.03677 -12.10097 -31.16696 4.38158 -20.56019 33.00673 -4.50415 11.51857 1.55752 13.85658 -0.51518 -25.26220 1.35936 -13.53165 21.60579 12.45639 -24.58623 -5.38714 -8.53896 6.10877 23.89074 -4.39714 -2.93608 0.39757 2.33759 -1.27446 9.17049 -8.98618 9.45265 -17.68980 -5.73272 1.51318 -0.50747 -65.27467 -9.42646 21.89630 -7.73220 -47.10476 20.67922 4.68335 1.10114 1.34597 72.13032 1.97767 21.69357 -3.47874 39.95707 14.46938
-26.67744 -10.71109 0.56089 45.14370 70.57474 62.41900 15.53838 -12.49540 -39.62776 2.72314 -18.76910 37.44005 -3.34602 13.42409 2.18778 13.00751 3.13413 -32.64335 0.86487 -10.19650 27.95241 10.83359 -22.42916 -3.45642 -8.06025 5.48933 28.78261 -3.13481 -2.66455 -1.36611 2.66004 -1.79133 9.64312 -10.36125 7.18052 -17.84318 -4.37593 5.01685 0.63674 -63.83895 -6.01062 22.12009 -15.12192 -49.58222 30.23336 4.00099 -3.47650 1.41670 72.27379 -2.25510 21.69169 -0.21150 39.75083 21.28199
-30.13450 -13.20786 0.65551 43.83680 68.42151 64.39190 16.11540 -12.41875 -47.68486 0.54576 -16.11154 43.28339 -2.15975 13.79982 2.85699 10.60786 5.71761 -43.22102 -0.75798 -9.21488 36.33785 13.00148 -21.96210 0.06673 -7.55364 5.60179 35.19356 -4.13834 -1.53133 -3.13482 1.87096 -1.42589 9.72941 -13.17304 4.38758 -19.04813 -2.92582 5.37502 1.72976 -61.32785 -2.56461 21.02596 -21.45137 -51.25390 37.95607 2.79996 -4.25229 3.42063 74.45331 -10.24336 21.64044 10.13585 45.13555 36.74616
-35.13136 -15.25709 0.73749 41.30270 67.08339 65.80672 17.32594 -10.63843 -56.82339 -0.30515 -13.22279 50.16840 0.09199 15.41365 -0.51903 10.90441 7.55095 -54.21599 -1.55817 -13.67605 45.04693 11.44322 -20.99803 -3.35200 -7.07019 5.64578 43.03032 -4.81179 -1.03981 -5.98564 2.27255 -1.29827 10.39369 -15.65000 3.43161 -23.14269 -3.32739 10.62145 1.26370 -63.44779 -1.54660 18.32826 -12.07529 -42.77853 21.37091 2.73992 -7.69821 4.40015 76.02699 -10.37492 19.28613 7.28538 34.30154 27.94626
-35.92868 -18.42443 0.77899 46.25558 67.66870 72.23471 17.58180 -10.75689 -64.22138 -2.41427 -11.40517 55.57275 0.61597 14.07068 0.20927 10.45107 4.70966 -61.87484 0.06323 -20.07621 49.07061 13.72053 -19.39130 -3.89305 -4.79978 6.30437 49.18159 -4.52193 -0.14349 -7.43931 2.38481 -0.46234 10.70378 -16.47098 3.01153 -27.23156 -3.41261 11.82202 0.93156 -61.25750 -0.22621 14.80129 -9.67559 -38.73450 18.28337 5.06697 -9.85162 6.65016 74.08843 -16.79117 13.65219 6.92075 34.13304 30.42082
-34.13539 -27.92709 0.84649 39.69304 67.30627 66.56421 19.40996 -6.85182 -68.28652 -3.14384 -5.35913 63.36826 0.76677 15.53610 -1.35029 11.01623 4.13427 -64.05120 0.55858 -23.32297 54.45246 14.03646 -18.98794 -0.29405 -5.75157 6.88781 53.07445 -5.27042 -0.13764 -5.36738 1.90074 -0.93735 10.01663 -15.97402 4.23283 -30.41789 -7.34152 17.79401 1.70883 -53.93155 7.13835 9.90023 -2.69198 -46.47217 5.36061 9.94513 -12.77039 6.14153 66.95109 -17.44755 10.90325 4.93676 27.33829 20.24658
-35.96440 -38.88897 0.94136 54.28306 70.97262 81.13065 17.80723 -7.35455 -74.78891 -5.00544 -3.02122 69.13142 1.02047 15.04945 1.05964 6.30151 7.98157 -68.57941 0.21757 -12.72924 62.68149 12.26125 -18.79152 -1.53873 -3.49704 3.86076 57.04927 -4.26365 -0.21621 -7.49439 1.63795 -2.18949 10.34398 -14.52681 1.87812 -28.08804 -8.17544 15.49246 2.32705 -56.24851 8.56654 10.40992 -4.45398 -40.26140 18.54354 7.56751 -11.34185 5.78669 66.77822 -21.18353 10.78389 9.37416 22.59930 31.73727
-32.18563 -44.61433 1.01546 56.23007 70.02212 86.07147 18.12423 -5.16358 -80.44533 -3.07410 3.40734 72.27995 0.75030 15.80365 4.09121 2.85081 11.64528 -74.06075 0.75480 -9.80078 64.59616 11.77421 -18.18123 6.80074 -3.14829 3.62206 60.55185 -4.37305 -1.54425 -8.85238 1.37569 -2.37757 8.75495 -15.52307 2.72425 -32.09296 -10.65082 11.49854 2.65709 -56.62427 6.03570 4.13066 3.19096 -24.49458 -13.58470 10.37368 -6.90994 6.76620 70.53028 -20.04586 12.61369 10.23896 21.41700 20.91872
-26.84199 -50.39101 1.05685 59.67999 69.42580 91.46690 17.11851 -4.87914 -82.78277 -3.42939 3.94410 76.69929 2.24465 14.59235 2.66517 2.87794 10.04645 -75.26787 -0.59641 -12.72494 68.54297 10.31353 -15.71398 4.48078 -2.39127 3.83513 62.00040 -2.86869 -1.97478 -10.20142 2.15456 -2.23482 8.95245 -17.63754 3.54922 -31.37625 -4.19998 12.50580 1.82454 -56.18114 7.05884 3.80891 4.18905 -26.32930 -2.81337 8.47224 -5.57062 4.95073 73.51351 -14.55491 14.20337 7.14524 20.19968 27.00611
-21.62299 -55.01745 1.07432 58.39750 70.38365 89.18951 16.86518 -3.31115 -84.15048 -2.23924 7.11725 85.45129 3.93976 13.08210 -1.18033 2.63974 7.75293 -78.49613 -1.96433 -17.02906 77.87667 10.07904 -15.57122 0.07840 -2.18285 4.30358 63.18106 -3.08860 -0.37103 -10.28137 1.52250 -1.17926 7.99001 -13.48493 7.22605 -33.70051 -10.75362 8.93509 0.68599 -53.05856 2.59797 5.94494 6.24228 -33.08286 -0.10503 14.62442 0.54552 4.57380 68.43660 -5.67189 17.86672 6.52474 23.96566 24.64090
-14.19212 -59.52378 1.07835 60.47720 71.67676 91.64005 15.70900 -5.22063 -86.27087 -1.15655 7.19111 94.76371 7.88517 12.93448 -4.00763 2.60240 6.80670 -81.73216 -4.03289 -15.99939 86.89213 9.56666 -14.74163 -1.97054 -2.28010 4.81377 62.82497 -1.95026 0.92429 -14.36671 2.65369 -0.50620 8.57435 -11.40175 7.19188 -31.39297 -6.46640 3.97752 -3.28622 -61.39968 -10.74823 10.54072 6.86912 -24.90762 -1.28779 9.74133 5.20793 0.83737 74.98939 7.03178 20.92693 -3.04842 12.73072 8.71726
